<?xml version="1.0" encoding="UTF-8"?>
<svg id="_圖層_1" data-name="圖層_1" xmlns="http://www.w3.org/2000/svg" version="1.1" viewBox="0 0 306.7 305.5">
  <!-- Generator: Adobe Illustrator 29.5.1, SVG Export Plug-In . SVG Version: 2.1.0 Build 141)  -->
  <defs>
    <style>
      .st0 {
        fill: #fefefe;
      }
    </style>
  </defs>
  <g id="zaN1f4">
    <g>
      <path class="st0" d="M68,1.6c57.4-4.5,120.8,1.9,178.6.8,30.7,4.7,55,29.4,58.7,60.3-3.5,58.5,4.5,122.2,0,180.1-2.6,33.5-33.7,60-66.5,61.5-55.6-2.8-114.9,3.8-170,0-37-2.5-65.1-29.2-67.6-66.4-3.7-54.9,2.9-113.8,0-169.1C3.5,30.7,30.2,4.6,68,1.6ZM65,32.6c-16.4,2.5-30.3,15.8-32.7,32.3v175.9c3,17.2,16.9,30.6,34.4,32.5h173.1c20.2-2,33.9-17.5,35.5-37.5-3.1-53.7,4-111.9,0-165.1-1.5-20.4-14.1-35.4-34.5-38.5l-175.7.3Z"/>
      <path class="st0" d="M94.6,101.7c33.1-37.6,93.9-33.9,123,6.7,33.9,47.3,5.1,114.4-52.2,122.7-72.4,10.4-119.6-73.9-70.8-129.3ZM117.5,121.7c-42.1,46.7,29.1,110.3,71.2,64.7,43.7-47.4-29.1-111.3-71.2-64.7Z"/>
      <path class="st0" d="M230.9,56.6c30.7-5.2,32.4,43.9.8,39.7-22.4-3-22.3-36.1-.8-39.7Z"/>
    </g>
  </g>
</svg>